# xmcd
#
# Track frame offsets: 
#        150
#        15092
#        29953
#        42250
#        55676
#        69870
#        83132
#        95343
#        108713
#        122566
#        135187
#        147618
#        161495
#        174607
#        187497
#        199677
#        214051
#        226844
#        240578
#        253805
#
# Disc length: 3551 seconds
#
# Revision: 0
# Processed by: cddbd v1.5.2PL0 Copyright (c) Steve Scherf et al.
# Submitted via: ExactAudioCopy v0.99pb4
#
DISCID=170ddd14
DTITLE=T-Bone Walker - 40 Prime Cuts
DYEAR=1946
DGENRE=Blues
TTITLE0=T-Bone Blues
TTITLE1=I Got A Break, Baby
TTITLE2=Sail On Boogie
TTITLE3=I'm Still In Love With You
TTITLE4=T-Bone Boogie
TTITLE5=Mean Old World Blues
TTITLE6=Bobby Sox Blues
TTITLE7=Im Gonna Find My Baby
TTITLE8=Hard Pain Blues
TTITLE9=I Know Yor Wig Is Gone
TTITLE10=T-Bone Jumps Again
TTITLE11=Call It Stormy Monday (But Tuesday Is Just As Bad)
TTITLE12=Long Skirt Baby Blues
TTITLE13=Hypin' Woman Blues
TTITLE14=Lonesome Woman Blues
TTITLE15=First Love Blues
TTITLE16=Inspiration Blues
TTITLE17=T-Bone Shuffle
TTITLE18=I Wish You Were Mine
TTITLE19=I Want A Little Girl
EXTD=
EXTT0=
EXTT1=
EXTT2=
EXTT3=
EXTT4=
EXTT5=
EXTT6=
EXTT7=
EXTT8=
EXTT9=
EXTT10=
EXTT11=
EXTT12=
EXTT13=
EXTT14=
EXTT15=
EXTT16=
EXTT17=
EXTT18=
EXTT19=
PLAYORDER=
